<?xml version="1.0" encoding="UTF-8" standalone="no"?>
<!-- Created with Inkscape (http://www.inkscape.org/) -->

<svg
   version="1.1"
   id="svg1"
   width="50"
   height="30"
   viewBox="0 0 49.999999 30"
   sodipodi:docname="titlepage_background_v3.svg"
   inkscape:version="1.4.2 (f4327f4, 2025-05-13)"
   inkscape:export-filename="../bcc8a49b/test.pdf"
   inkscape:export-xdpi="96"
   inkscape:export-ydpi="96"
   xml:space="preserve"
   xmlns:inkscape="http://www.inkscape.org/namespaces/inkscape"
   xmlns:sodipodi="http://sodipodi.sourceforge.net/DTD/sodipodi-0.dtd"
   xmlns="http://www.w3.org/2000/svg"
   xmlns:svg="http://www.w3.org/2000/svg"><defs
     id="defs1" /><sodipodi:namedview
     id="namedview1"
     pagecolor="#ffffff"
     bordercolor="#000000"
     borderopacity="0.25"
     inkscape:showpageshadow="2"
     inkscape:pageopacity="0.0"
     inkscape:pagecheckerboard="0"
     inkscape:deskcolor="#d1d1d1"
     inkscape:zoom="0.8771062"
     inkscape:cx="293.00899"
     inkscape:cy="265.07622"
     inkscape:window-width="1920"
     inkscape:window-height="991"
     inkscape:window-x="-9"
     inkscape:window-y="-9"
     inkscape:window-maximized="1"
     inkscape:current-layer="g1-0"
     showguides="true"
     showgrid="false"><inkscape:page
       x="0"
       y="0"
       inkscape:label="0"
       id="page1"
       width="50"
       height="30"
       margin="0"
       bleed="0"
       inkscape:export-filename="pics\points.png"
       inkscape:export-xdpi="96"
       inkscape:export-ydpi="96" /></sodipodi:namedview><g
     id="g1"
     inkscape:groupmode="layer"
     inkscape:label="0"><path
       id="path840"
       d="m 30.821646,11.529582 c -0.532,1.03066 -1.792,1.432 -2.813333,0.90133 -1.025334,-0.53733 -1.426667,-1.80267 -0.896,-2.82933 0.526666,-1.03067 1.786666,-1.43734 2.813333,-0.90534 1.02,0.53067 1.421333,1.80667 0.896,2.83334"
       style="fill:#C41E1E;fill-opacity:1;fill-rule:nonzero;stroke:none;stroke-width:1.33333" /><path
       id="path841"
       d="m 34.352313,14.445582 c -0.494667,0.95866 -1.666667,1.33333 -2.62,0.83866 -0.948,-0.49466 -1.322667,-1.672 -0.828,-2.63466 0.489333,-0.95867 1.661333,-1.33334 2.614666,-0.83867 0.948,0.5 1.322667,1.676 0.833334,2.63467"
       style="fill:#C41E1E;fill-opacity:1;fill-rule:nonzero;stroke:none;stroke-width:1.33333" /><path
       id="path842"
       d="m 28.264313,17.789572 c -0.496,0.964 -1.666667,1.33334 -2.614667,0.844 -0.953333,-0.5 -1.328,-1.67733 -0.833333,-2.63599 0.489333,-0.95734 1.661333,-1.33334 2.614666,-0.83867 0.952,0.496 1.322667,1.672 0.833334,2.63066"
       style="fill:#C41E1E;fill-opacity:1;fill-rule:nonzero;stroke:none;stroke-width:1.33333" /><path
       id="path843"
       d="m 37.232312,22.956242 c -0.344,0.66667 -1.161333,0.932 -1.822666,0.584 -0.666667,-0.344 -0.926667,-1.16667 -0.584,-1.83333 0.344,-0.672 1.162666,-0.93334 1.824,-0.58934 0.666666,0.34934 0.926666,1.16667 0.582666,1.83867"
       style="fill:#C41E1E;fill-opacity:1;fill-rule:nonzero;stroke:none;stroke-width:1.33333" /><path
       id="path844"
       d="m 43.330979,23.597572 c -0.342667,0.67067 -1.161333,0.932 -1.822667,0.588 -0.666666,-0.34933 -0.926666,-1.16666 -0.582666,-1.83866 0.344,-0.66667 1.161333,-0.92667 1.828,-0.58267 0.661333,0.34267 0.921333,1.16667 0.577333,1.83333"
       style="fill:#C41E1E;fill-opacity:1;fill-rule:nonzero;stroke:none;stroke-width:1.33333" /><path
       id="path845"
       d="m 37.622979,18.341572 c -0.458667,0.89067 -1.536,1.23467 -2.416,0.78134 -0.885333,-0.464 -1.229333,-1.54667 -0.772,-2.43733 0.453334,-0.88534 1.537333,-1.22934 2.417333,-0.776 0.88,0.464 1.224,1.552 0.770667,2.43199"
       style="fill:#C41E1E;fill-opacity:1;fill-rule:nonzero;stroke:none;stroke-width:1.33333" /><path
       id="path846"
       d="m 32.242979,20.196242 c -0.458666,0.88 -1.541333,1.23467 -2.417333,0.77067 -0.885333,-0.45867 -1.228,-1.54667 -0.770667,-2.432 0.453334,-0.88533 1.537334,-1.22933 2.417334,-0.776 0.88,0.45733 1.224,1.54666 0.770666,2.43733"
       style="fill:#C41E1E;fill-opacity:1;fill-rule:nonzero;stroke:none;stroke-width:1.33333" /><path
       id="path847"
       d="m 25.054979,12.554912 c -0.525333,1.032 -1.785333,1.43333 -2.812,0.90133 -1.021333,-0.536 -1.421333,-1.80133 -0.895999,-2.83333 0.532,-1.02533 1.791999,-1.432 2.811999,-0.896 1.026667,0.532 1.428,1.79733 0.896,2.828"
       style="fill:#C41E1E;fill-opacity:1;fill-rule:nonzero;stroke:none;stroke-width:1.33333" /><path
       id="path848"
       d="m 23.800313,18.606912 c -0.530667,1.032 -1.786667,1.43333 -2.812,0.90133 -1.026667,-0.52533 -1.422667,-1.79733 -0.896,-2.828 0.530667,-1.03066 1.790667,-1.432 2.812,-0.90133 1.026666,0.53733 1.426666,1.80267 0.896,2.828"
       style="fill:#C41E1E;fill-opacity:1;fill-rule:nonzero;stroke:none;stroke-width:1.33333" /><path
       id="path849"
       d="m 20.149646,14.732242 c -0.532,1.02667 -1.792,1.432 -2.813333,0.896 -1.025333,-0.53066 -1.426667,-1.79733 -0.896,-2.828 0.526667,-1.032 1.786667,-1.432 2.813333,-0.90666 1.02,0.53733 1.421334,1.808 0.896,2.83866"
       style="fill:#C41E1E;fill-opacity:1;fill-rule:nonzero;stroke:none;stroke-width:1.33333" /><path
       id="path850"
       d="m 14.477646,16.508242 c -0.385333,0.75067 -1.308,1.052 -2.052,0.656 -0.750666,-0.38533 -1.042666,-1.30666 -0.657333,-2.06266 0.386667,-0.75467 1.308,-1.052 2.053333,-0.66134 0.749334,0.39067 1.041334,1.31334 0.656,2.068"
       style="fill:#C41E1E;fill-opacity:1;fill-rule:nonzero;stroke:none;stroke-width:1.33333" /><path
       id="path851"
       d="m 11.565646,12.628242 c -0.328,0.65067 -1.12,0.90134 -1.754666,0.56267 -0.641334,-0.33333 -0.896,-1.12 -0.562667,-1.77067 0.333333,-0.64133 1.12,-0.896 1.76,-0.55733 0.636,0.33333 0.890667,1.12533 0.557333,1.76533"
       style="fill:#C41E1E;fill-opacity:1;fill-rule:nonzero;stroke:none;stroke-width:1.33333" /><path
       id="path852"
       d="m 7.393647,17.092242 c -0.333334,0.65067 -1.12,0.9 -1.76,0.56667 -0.641334,-0.33733 -0.890667,-1.124 -0.557334,-1.76533 0.328,-0.65067 1.114667,-0.90134 1.754667,-0.568 0.641333,0.33333 0.890667,1.12533 0.562667,1.76666"
       style="fill:#C41E1E;fill-opacity:1;fill-rule:nonzero;stroke:none;stroke-width:1.33333" /><path
       id="path853"
       d="m 36.316312,22.284242 -0.016,0.18267 5.406667,0.43733 0.01467,-0.188 z"
       style="fill:#C41E1E;fill-opacity:1;fill-rule:nonzero;stroke:none;stroke-width:1.33333" /><path
       id="path854"
       d="m 36.097646,17.472242 -0.182667,0.0107 0.286667,5.44266 0.181333,-0.0107 z"
       style="fill:#C41E1E;fill-opacity:1;fill-rule:nonzero;stroke:none;stroke-width:1.33333" /><path
       id="path855"
       d="m 32.961646,13.502912 -0.145333,0.11467 3.306666,4.31733 0.146667,-0.10934 z"
       style="fill:#C41E1E;fill-opacity:1;fill-rule:nonzero;stroke:none;stroke-width:1.33333" /><path
       id="path856"
       d="m 28.950979,10.524242 -0.09333,0.16134 4.64,2.81733 0.09467,-0.16133 z"
       style="fill:#C41E1E;fill-opacity:1;fill-rule:nonzero;stroke:none;stroke-width:1.33333" /><path
       id="path857"
       d="m 21.737646,17.956242 0.04133,0.17733 5.286666,-1.20266 -0.04133,-0.18267 z"
       style="fill:#C41E1E;fill-opacity:1;fill-rule:nonzero;stroke:none;stroke-width:1.33333" /><path
       id="path858"
       d="m 23.508313,11.612242 0.04133,0.17734 5.286667,-1.19734 -0.04133,-0.18266 z"
       style="fill:#C41E1E;fill-opacity:1;fill-rule:nonzero;stroke:none;stroke-width:1.33333" /><path
       id="path859"
       d="m 26.482979,16.830912 -0.09467,0.15733 4.62,2.85333 0.09333,-0.156 z"
       style="fill:#C41E1E;fill-opacity:1;fill-rule:nonzero;stroke:none;stroke-width:1.33333" /><path
       id="path860"
       d="m 30.669646,19.316242 1.989333,-5.07333 -0.170666,-0.068 -1.990667,5.07866 z"
       style="fill:#C41E1E;fill-opacity:1;fill-rule:nonzero;stroke:none;stroke-width:1.33333" /><path
       id="path861"
       d="m 28.534979,11.805582 -0.172,-0.068 -1.989333,5.07333 0.172,0.0667 z"
       style="fill:#C41E1E;fill-opacity:1;fill-rule:nonzero;stroke:none;stroke-width:1.33333" /><path
       id="path862"
       d="m 23.445646,12.549582 -0.172,-0.0667 -1.989333,5.07733 0.172,0.068 z"
       style="fill:#C41E1E;fill-opacity:1;fill-rule:nonzero;stroke:none;stroke-width:1.33333" /><path
       id="path863"
       d="m 23.190979,11.758912 -0.07867,-0.16667 -4.896,2.33334 0.07333,0.16666 z"
       style="fill:#C41E1E;fill-opacity:1;fill-rule:nonzero;stroke:none;stroke-width:1.33333" /><path
       id="path864"
       d="m 17.712313,14.086912 -0.07867,-0.16667 -4.901333,2.33334 0.07867,0.16666 z"
       style="fill:#C41E1E;fill-opacity:1;fill-rule:nonzero;stroke:none;stroke-width:1.33333" /><path
       id="path865"
       d="m 13.112313,16.049582 0.146667,-0.11467 -3.24,-4.36933 -0.145334,0.10933 z"
       style="fill:#C41E1E;fill-opacity:1;fill-rule:nonzero;stroke:none;stroke-width:1.33333" /><path
       id="path866"
       d="m 6.149647,16.242912 0.129333,0.13067 3.828,-3.86 -0.129334,-0.13067 z"
       style="fill:#C41E1E;fill-opacity:1;fill-rule:nonzero;stroke:none;stroke-width:1.33333" /></g></svg>
